<svg width="16" height="16" viewBox="0 0 16 16" fill="none" xmlns="http://www.w3.org/2000/svg">
<g clip-path="url(#clip0_140_1412)">
<path d="M13.2655 6.09346L13.0274 5.95299C12.9904 5.93118 12.9719 5.92024 12.9541 5.90889C12.7765 5.79611 12.6269 5.63999 12.5177 5.45356C12.5067 5.4348 12.4959 5.41541 12.4747 5.37653C12.4535 5.3376 12.4429 5.31804 12.433 5.29854C12.335 5.10458 12.2823 4.8886 12.2791 4.6686C12.2789 4.64878 12.2792 4.6285 12.2798 4.59216L12.28 4.57886L12.2845 4.29136C12.2921 3.81836 12.2958 3.5819 12.2333 3.36985C12.1781 3.18226 12.0858 3.00932 11.9624 2.86268C11.8231 2.69722 11.63 2.57926 11.2448 2.34388L11.2428 2.34265L10.9217 2.14646C10.5362 1.91091 10.3434 1.79319 10.1387 1.74828C9.95766 1.70855 9.77069 1.71013 9.59028 1.75308C9.38688 1.80149 9.19667 1.92226 8.81688 2.16338L8.81397 2.16522L8.58389 2.31129C8.54751 2.33439 8.5291 2.34591 8.51086 2.35666C8.32991 2.46333 8.12759 2.52269 7.92066 2.52973C7.8998 2.53044 7.87858 2.53044 7.83616 2.53044H7.83562C7.79347 2.53044 7.77252 2.53044 7.75171 2.52973C7.54433 2.52266 7.34134 2.46304 7.16011 2.35592C7.14252 2.34553 7.12503 2.3344 7.09119 2.31285L7.08724 2.31034L6.8557 2.16295L6.85396 2.16184C6.47189 1.91864 6.28068 1.79692 6.07623 1.74828C5.89508 1.70519 5.70719 1.70374 5.52547 1.74399C5.32005 1.78948 5.12667 1.90847 4.74007 2.14637L4.42297 2.34151C4.03838 2.57818 3.84637 2.69647 3.70763 2.86204C3.58488 3.00853 3.49295 3.18107 3.43804 3.36817C3.37597 3.57965 3.37947 3.8154 3.38695 4.28681L3.39159 4.5796C3.3923 4.62394 3.39276 4.64612 3.39246 4.66793C3.38938 4.88838 3.33644 5.10482 3.23818 5.29913C3.22846 5.31834 3.218 5.33755 3.1971 5.3759L3.19708 5.37595C3.17615 5.41436 3.1657 5.43352 3.15485 5.45205C3.04514 5.63949 2.89462 5.79633 2.71592 5.90931C2.69825 5.92049 2.6801 5.93123 2.6435 5.95274L2.40839 6.09089L2.4083 6.09094C2.01719 6.32075 1.82167 6.43564 1.6794 6.59931C1.55352 6.74412 1.45822 6.91585 1.40017 7.10292C1.33465 7.3141 1.33515 7.55087 1.33617 8.02382L1.33617 8.02568L1.337 8.41325L1.33701 8.41745C1.33801 8.88567 1.33852 9.12041 1.40408 9.32981C1.46225 9.51562 1.55709 9.68613 1.68225 9.83006C1.82358 9.99258 2.01755 10.107 2.40492 10.3355L2.40617 10.3362L2.63918 10.4737L2.64243 10.4756C2.67994 10.4977 2.69928 10.5091 2.71788 10.521C2.89495 10.634 3.04385 10.7903 3.15263 10.9766C3.16437 10.9967 3.17565 11.0176 3.19818 11.0594L3.19822 11.0594L3.2059 11.0737C3.22324 11.1057 3.23303 11.1239 3.24207 11.142C3.33745 11.3335 3.38899 11.546 3.39247 11.7625C3.39284 11.7859 3.39249 11.8098 3.39174 11.8573L3.38726 12.1383L3.38725 12.1393C3.37973 12.6116 3.37596 12.8479 3.43835 13.0598C3.49359 13.2475 3.58612 13.4204 3.70953 13.567C3.84903 13.7328 4.04209 13.8509 4.42868 14.0871L4.74972 14.2833C5.13522 14.5188 5.32826 14.6365 5.53292 14.6814C5.71398 14.7212 5.9009 14.7196 6.08131 14.6766C6.28479 14.6282 6.47506 14.5074 6.85516 14.2661L6.85761 14.2645L7.08768 14.1184C7.12408 14.0953 7.1424 14.0838 7.16063 14.0731C7.34159 13.9664 7.54382 13.907 7.75075 13.9C7.77161 13.8993 7.79282 13.8993 7.83524 13.8993C7.87776 13.8993 7.89931 13.8993 7.92021 13.9C8.12759 13.9071 8.33027 13.9666 8.5115 14.0737C8.52976 14.0845 8.54807 14.0962 8.58453 14.1194L8.81607 14.2667L8.81651 14.267C9.19944 14.5108 9.39092 14.6327 9.5956 14.6814C9.77674 14.7245 9.9643 14.726 10.146 14.6857C10.3514 14.6403 10.5449 14.5213 10.9315 14.2834L11.2486 14.0882C11.6332 13.8515 11.8253 13.7332 11.964 13.5677C12.0868 13.4212 12.1787 13.2486 12.2336 13.0616C12.2957 12.8501 12.2921 12.6143 12.2846 12.1429L12.28 11.8501L12.2797 11.8355C12.2792 11.8007 12.2789 11.7811 12.2791 11.7619C12.2822 11.5414 12.3351 11.3249 12.4333 11.1306C12.4431 11.1114 12.4535 11.0922 12.4744 11.0538L12.4744 11.0538C12.4954 11.0154 12.506 10.9962 12.5169 10.9776C12.6266 10.7902 12.7769 10.6334 12.9556 10.5205C12.9727 10.5096 12.9905 10.4992 13.0248 10.479L13.0283 10.477L13.2635 10.3388C13.6546 10.109 13.8501 9.99408 13.9923 9.8304C14.1182 9.68559 14.2133 9.51389 14.2714 9.32682C14.337 9.11537 14.3367 8.87826 14.3357 8.40407L14.3349 8.01651C14.3339 7.54549 14.3333 7.30991 14.2676 7.09989C14.2094 6.91408 14.1145 6.74357 13.9893 6.59963C13.8478 6.43694 13.6537 6.32244 13.2655 6.09346Z" stroke="#CED0D6" stroke-width="1.5" stroke-linecap="round" stroke-linejoin="round"/>
</g>
<defs>
<clipPath id="clip0_140_1412">
<rect width="16" height="16" fill="white"/>
</clipPath>
</defs>
</svg>
